<?xml version="1.0" encoding="UTF-8"?>
<svg xmlns="http://www.w3.org/2000/svg" version="1.1" viewBox="0 0 461.1 1136.6">
  <defs>
    <style>
      .cls-1 {
        fill: #efccac;
      }
    </style>
  </defs>
  <!-- Generator: Adobe Illustrator 28.6.0, SVG Export Plug-In . SVG Version: 1.2.0 Build 709)  -->
  <g>
    <g id="Calque_1">
      <path class="cls-1" d="M457.1,807l-16.8,53.1-31.7,38.8-7.7-11.8,24.5-64.9-6.1-6.1-12.3,25.5-6.6-3.6-2-37.3,11.7-59.7-13.3-60.3-20.4-95,4.1-51.6-5.1-39.8-10.2-63.7-22.6,79.5-6.5,55.7,9.6,62.3,24.6,101.1v91.4c0,1.5-7.6,64.3-7.6,64.3l-13.8,70.2s-6.6,31.4-7.1,35.5c-.5,4.1-5.6,27.6-5.6,27.6l5.6,75.6s7.6,37.5,8.1,42.6h-101.9l4.3-19.4s4.4-41.7,4.4-43.2-7.7-33.4-7.7-33.4l3.4-78-9-85.6,1.5-78.8h-24.3s-2.3,26.8,0,29.1c2.3,2.3-6.9,118-6.9,118v68.2l-5.6,42.1s-.2,32.9-1.9,35.2c-1.1,1.5,4.8,27.9,9,45.7h-103.8c.5-5.1,8.1-42.6,8.1-42.6l5.6-75.6s-5.1-23.5-5.6-27.6c-.5-4.1-7.2-35.5-7.2-35.5l-13.8-70.2s-7.7-62.8-7.7-64.3v-91.4l24.7-101.1,9.6-62.3-6.5-55.7-22.6-79.5-10.2,63.7-5.1,39.8,4.1,51.6-20.4,95-13.3,60.3,11.8,59.7-2,37.3-6.6,3.6-12.3-25.5-6.1,6.1,24.5,64.9-7.7,11.8-31.7-38.8-16.9-53.1,11.7-98-4.6-120.5,16.3-75.4,5.1-94.6s5.6-18.4,5.1-19.9c-.5-1.5-6.6-49-6.6-49l30.1-63.8,70-32.2,51.6-32.7,6.6-39.3-13.3-39.3-12.9-8.7-3.9-35.7,11.7-6.7,2.6-41.8,34.3-38.8,22.6-5.1h.3l22.6,5.1,34.3,38.8,2.5,41.8,11.8,6.7-3.9,35.7-12.9,8.7-13.3,39.3,6.6,39.3,51.6,32.7,70,32.2,30.1,63.8s-6.1,47.5-6.6,49c-.5,1.5,5.1,19.9,5.1,19.9l5.1,94.6,16.3,75.4-4.6,120.5,11.7,98Z"/>
    </g>
  </g>
</svg>