<?xml version="1.0" encoding="UTF-8"?>
<svg xmlns="http://www.w3.org/2000/svg" version="1.1" viewBox="0 0 461.1 1136.6">
  <defs>
    <style>
      .cls-1 {
        fill: #271e1b;
      }

      .cls-2 {
        fill: #1d1d1b;
      }
    </style>
  </defs>
  <!-- Generator: Adobe Illustrator 28.6.0, SVG Export Plug-In . SVG Version: 1.2.0 Build 709)  -->
  <g>
    <g id="Calque_1">
      <g>
        <path class="cls-1" d="M208.8,1135.9c-.1-.6-.6-3.3-1.1-6.2-.4-2.9-2-10.8-3.5-17.5-4.4-20.1-4.5-20.2-4.5-33.8v-12l1.6-6c2.1-7.2,3.3-13.3,4.6-22.2.9-6.1,1-8.2.8-21.8-.2-8.2-.5-17.6-.8-20.8-.6-7.8-.6-41.2,0-45.3.2-1.9.8-6.5,1-10.2.3-3.7.9-9.5,1.3-13,.4-3.5,1-8,1.3-10.2.2-2.2.6-6,1-8.5.3-2.5.8-7.2,1-10.5s.6-7.9,1-10.2c.6-5.2,1.8-18.8,2.6-31.8.4-5.2.6-17.6.6-27.5,0-23.1-.2-24.6-5.1-34.2-2-3.8-3.9-8-4.3-9.5-.9-3.2-1.1-9.1-.2-10,1.8-1.8,4.4,0,10.1,7.1,7.2,9,10.1,10.9,16.5,11,6.9,0,9.7-1.5,18.3-10,6.1-6.1,7.8-7.2,9.9-7,1.2.2,1.4.3,1.5,2.5.3,4.5-4.4,14-10,20.1-2.4,2.6-3,3.8-3.5,5.9-.5,2-.5,10.7-.3,32.2.5,42.5,1.9,64.7,6.6,106.2,2.1,18.8,2.4,32.9.7,53.2-.8,9.3-1.1,18-1.1,28.2,0,16.5,0,17.1,3.9,33,4.4,17.7,4.4,20.6.5,46.5-.7,4.6-2,11.7-2.8,15.8-.9,4.4-1.5,9.2-1.6,11.7v4.2s-6.6-.2-6.6-.2c-4.4,0-6.8-.3-7.2-.8s-.3-2.1,1-7.5c.9-3.8,1.6-7.9,1.9-9.2.1-1.2.6-3.6,1-5.2.4-1.7,1-4.8,1.5-7,.5-2.2,1.2-6.2,1.8-8.8,2.5-11.5,3.1-19.3,2-25.8-.6-3.7-3-14.3-3.2-14.7-.1-.2-.9-3.8-1.8-8.1-1.5-7.1-1.6-8.6-1.8-19.4-.1-6.4,0-15.8.3-20.8q1.8-29.6,1.1-43.7c-.3-7.6-.8-15.5-1-17.5-.2-2-.9-8.3-1.5-14-.5-5.7-1.4-13.4-1.8-17.2-.5-3.8-1-9.9-1.3-13.5-.3-3.5-.9-10.5-1.3-15.5-1-11.8-1.6-36.7-1.7-61.8v-20.4h-3.5c-1.9,0-3.7-.1-4-.2-.3,0-.5,10.2-.6,28.2-.1,15.6-.5,31-.8,34.2-.3,3.3-.9,9.7-1.4,14.2-.4,4.5-1.1,10.8-1.5,14-2.1,16.7-4.2,34.7-4.9,41.8-.5,4.4-1,9.9-1.4,12.2-.8,6.1-.6,33.2.2,44.8,1.6,21.1,1.9,28.2,1.3,35.2-1,11.7-2,17.7-5.2,31-1.2,4.8-2.4,10.9-2.7,13.4-.8,7.2.4,17.3,3.8,31.5,2.9,11.9,6,29.1,5.5,30.2-.1.4-1.6.8-4,.9-2.1.2-4.6.5-5.8.7-1.6.2-2,.2-2.2-.6h0Z"/>
        <path class="cls-2" d="M164.5,106.9c-.7,6.4,1.3,19.4,3.8,24.2,1.3,2.6,2.8,3.7,7.2,5.2,2,.8,4,1.7,4.2,2,.2.3,1.7,4.7,3.2,9.7,4.8,15.7,6.8,19.2,14.9,27.9,3.2,3.4,5.9,5.6,10.6,8.7,6.8,4.5,10.2,6,15.6,7.2,1.9.4,4.2.6,6.6.6v9.6h-.2c-11.2,0-20.1-3.2-31.8-11.5-2.7-1.9-5-3.5-5-3.5s-.4,5-.5,11.1c-.5,13.7-.8,15.9-3.7,21.9-1.8,3.9-3,5.4-6.8,9.4-6.6,6.8-14.2,11.7-33.4,21.5-12.6,6.5-25.9,12.7-34.8,16.3-3,1.2-7.2,3.1-9.3,4.1-2.1.9-7.9,3.3-12.9,5.2-11.2,4.3-16.6,6.8-21,9.8-13.3,8.8-24.8,26.7-29.8,46.3-3.5,13.8-5.2,25.3-4.6,32,.4,3.8,2.2,15.6,4.2,26.5,2,10.5,1.5,16.2-2.5,30.5-2.8,9.8-2.9,10.8-4.6,29.8-.8,7.8-.8,27.5-.3,46.8.5,14.5,0,20.8-1.9,29.3-1.5,6.9-5.3,20.8-8.6,31.4-3.7,12-5.8,22-6.4,29.2-.8,10-.8,23.5,0,34.8,1,16.1,1.5,26,3.3,74.5.3,7.7.6,14.5.7,15.1.4,2.4-.7,25-1.5,30.8-.4,3.3-1,8.2-1.3,10.8-.3,2.6-1,7.8-1.5,11.5-.5,3.7-1.2,9.5-1.6,13-.5,3.5-1.2,9.8-1.9,14.2-.7,5.1-1.1,10.9-1.1,16,0,7,0,8.5,1.1,11.9.7,4.4,2.4,11.1,4,15.2,1.4,3.9,3.4,8.8,5.5,13,5.9,11.5,7.4,14.3,10.3,19,1.5,2.3,2.3,3.8,6.8,10.5s11.9,14.4,13.4,11.7c1.1-2-1.2-8.3-7.6-20.5-7.3-14-6.6-12.2-10.5-24.5-2.2-7.2-3.5-16.6-3.6-19.9,0-2.2-.2-5.2,1.4-8.6.5-1,1.2-4.1,1.8-7,.6-2.9,1.4-5.9,1.9-6.8,2.2-3.8,7.2-1.2,9.8,5,1.2,2.9,1.7,5.3,2.6,11.5,1.4,9.8,4.9,18.3,6.9,16.3s1-24.8.3-32.6c-.7-8-2.6-17.4-5.4-26.2-5.1-16.2-5.2-16.7-5.2-28.2,0-9.8.2-12.4,2.1-24.8,1-6,2.5-14.2,4.1-20.5,4.8-19.9,8.6-35.2,10.2-40.8,1.1-3.5,2.3-7.8,2.9-9.8.5-1.9,2-7,3.1-11.2,2.8-9.7,6.9-26.3,8-32.2,2-10.2,1.7-29.5-.5-47-1.6-12.9-2.1-23-1.3-28.5.3-2.2.9-6.7,1.3-9.8.4-3.2,1-7,1.2-8.5,1.1-5.8,3.5-23.7,5-37,1.7-15,2.1-18,3.4-24.5,3.5-18.1,3.8-20.1,3.8-32.2,0-10.7-.4-17.7-1.8-29-.3-2.5-.5-6.2-.5-8.1,0-4.1.7-5.3,3.2-5.9,1.9-.5,3.6.7,5,3.3,1.3,2.7,6.2,23.5,9.4,40.4,1.4,7.3,3.2,15.6,4,18.5.8,2.9,2.2,8.5,3,12.5,2.5,11.4,2.8,12.6,5.7,24,2.7,10.5,4.2,17.1,5.3,24.5.4,2,1.4,7.7,2.4,12.5,1.8,8.8,2,10.4,3.3,18,.8,4.3,1.5,9.6,2.3,18.6.7,6.3.7,18,0,23.4-1.5,12.2-2.1,15.9-4,23-1.1,4.2-2.6,10-3.2,12.8-1.4,5.9-8.1,33.5-12.2,50.5-1.6,6.6-3.4,14.2-3.9,17-4.2,20.6-7.6,41.3-8.5,51.2-.4,3.5-.8,7.7-1.1,9.5s-.7,6.8-1,11c-.2,4.2-.8,10.9-1.1,14.8-.7,8.6-.2,34.6.8,46,2.5,26,4.2,41.6,6.8,59,1.5,10.2,2.2,14.1,5.2,27.8,1.5,6.8,3.7,17.3,5,23.5s3.5,17.2,5,24.5c5.1,24.5,8.8,46.5,10.3,62,.8,7.8.8,52.5,0,61.8-.3,3.6-1.1,9.5-1.8,13-4.2,22.6-7.8,42.8-8,46.3l-.3,4-6-.2h-6.1c0-.1-.1-1.8-.1-1.8-.2-2,1.6-14.6,3.2-22.6,1.7-8.4,1.9-9.2,3.1-13.5,1-3.4,1.5-5.9,3-13.8.7-3.5,1.9-12.8,2.2-17.5.5-5.2-.5-39.3-1.5-52-1.3-18.5-4.6-39.5-9.2-59-.5-2.2-1-4.7-1.2-5.5-.2-.8-.6-2.6-.9-4-.2-1.4-.7-3.8-1-5.2s-1.3-6.5-2.5-11.2c-3.5-14.9-4.4-19.3-6-28.5-.8-5-2.3-13-3.2-17.9-1.6-8.1-2.4-13.5-3.8-23.4-.2-2-.8-6.4-1.3-9.7-.5-3.2-1-8.2-1.2-11-.2-2.8-1-10.3-1.6-16.8-1.8-16.5-2-24.9-1.4-45.6.8-25.9,1.5-34,3.9-48.9.4-2.6,1-5.9,1.1-7.2.2-1.4.7-3.9,1-5.5.3-1.7.8-4.5,1-6.4.7-4.3,4.8-25.2,5.7-29.1,3.2-13.4,15-59.8,16.5-64.8,3.7-12.8,7.5-31.4,8.1-39.5.7-8.1-1.5-27.5-5-44.8-1.2-6-3-15.7-4-21.5-2.2-13.1-2.8-15.7-5.2-24.8-1.1-4-2.4-9.6-3.1-12.5-4.3-20.4-6.5-24.5-6.8-12.9,0,3.1-.4,6.7-.8,8-.3,1.4-.5,2.9-.3,3.4.2.6,0,2.5-.2,4.1-.2,1.7-.6,4.1-.8,5.4-.4,3.9-2.2,18-3,23.8-.4,3-1.1,8.5-1.5,12-.5,3.6-1.5,10-2.2,14.5-2.5,13.5-2.5,16.1.4,35.3,2.6,18,2.7,35.1.2,49-1.1,6.3-7.1,30.6-9.8,39.5-.9,3.1-2.6,9.5-3.8,14-1.1,4.5-3.1,12.3-4.5,17.2-7.4,27.3-12.5,54.2-12.5,66.4,0,7,.9,11.2,4.2,21,3.2,9.6,4.9,16.3,6.4,26.5.9,6.4,1,8.5.8,19.9-.6,22.3-3.4,25.3-5.8,28.5-2.4,3.3-7,3.5-10.7,1.4-8.4-4.6-10.2-19.6-10.7-18.2-.4,1,.8,14.3,6.5,23.5,3.6,8.9,5.2,9.9,9.7,16.9,4.5,7.1,6.1,11.5,6.5,18.5.4,6.5-.3,9.2-3.2,12.5-3.6,4-7.5,5.3-11.2,3.7-4.2-1.8-21.2-22.2-25.8-29.2-5.2-7.8-10.2-14-18.2-36.9-5.2-15-5.7-17.2-5.5-28,0-5,.3-10.5.6-12.2.5-2.9,1.5-10.5,3-21.2.2-1.9.9-6.5,1.3-10.2.5-3.7,1.2-8.9,1.6-11.5,2.1-13.9,2.5-20.8,2-47-.3-24.1-.8-35.9-2.4-60.5-1.9-29.5-2.1-34.4-2.1-43s1-17.3,2.5-24.5c1.7-8,6.5-25.2,8.9-32,2.4-6.5,4.7-17,5.8-25.8.4-3.4.6-14.8.7-35.5,0-18.8.3-32.2.7-34.8,1.4-10.6,1.7-12.4,2.1-15,.3-1.5.8-3.9,1-5.2.2-1.4.8-3.9,1.2-5.5,1.2-4.5,2.8-11.2,3.4-14.5.9-5-.2-14.7-3.8-33.5-1.7-8.7-1.4-24,.6-32.9,3-13.5,4.1-17.3,8.7-28.6,6-14.9,15.4-27.3,27.3-36.3,5.6-4.2,15.6-9.2,23.9-12,7.6-2.6,23.4-9.5,42.7-18.8,3.7-1.8,6.8-3.2,6.8-3.2s3.5-1.6,7.6-3.5c16.9-8.1,30.8-17.4,34.2-22.9,2.8-4.4,4.1-16,3.8-32.6l-.2-9.7-2.6-5.9c-3.8-8.4-5.8-14.2-7.2-21.1-.3-1.6-.8-3-1.1-3-7.1-1.9-9.4-3.7-12.2-9.5-2-4.3-4.8-16.2-5.7-24.2-.5-4.8-.5-6.1.2-10.1,1.8-10.1,5-14,11.2-14h1.8v-14.4c0-15.3.1-16.2,2.8-25.6,2.9-10.2,8.1-19,16.2-27.4,9.1-9.5,19.1-15.2,32.7-18.6C223.1.3,224.6,0,230.6,0v14.1c-6.3.2-11.2,1.1-17.1,3.2-17,6.1-30.3,22.2-34.6,41.8-.8,3.7-.9,6.7-1,21,0,16,0,16.9-1,18.5-1.4,2.4-2.8,3-6.8,3s-5.2.7-5.6,5.3Z"/>
        <path class="cls-2" d="M296.8,106.9c.7,6.4-1.3,19.4-3.8,24.2-1.3,2.6-2.8,3.7-7.3,5.2-2,.7-4,1.7-4.2,2-.2.3-1.7,4.7-3.3,9.7-4.8,15.7-6.8,19.2-14.9,27.9-3.3,3.4-5.9,5.6-10.6,8.7-6.8,4.5-10.3,6-15.6,7.2-1.9.4-4.2.6-6.6.6v9.6s.2,0,.2,0c11.2,0,20.1-3.2,31.8-11.5,2.7-1.9,5-3.5,5-3.5s.4,5,.5,11.1c.5,13.7.8,15.9,3.7,21.9,1.8,3.9,3,5.4,6.8,9.4,6.6,6.8,14.2,11.7,33.4,21.5,12.6,6.5,25.9,12.7,34.7,16.3,3,1.3,7.2,3.1,9.3,4.1,2.1.9,7.9,3.3,12.9,5.3,11.2,4.3,16.6,6.8,21,9.8,13.3,8.8,24.7,26.7,29.7,46.3,3.5,13.8,5.2,25.3,4.6,32-.4,3.7-2.3,15.6-4.3,26.5-2,10.5-1.5,16.2,2.5,30.5,2.7,9.8,2.9,10.8,4.6,29.8.7,7.8.8,27.5.3,46.8-.5,14.5,0,20.8,1.9,29.3,1.5,6.9,5.3,20.8,8.6,31.4,3.7,12,5.8,22,6.4,29.3.7,10,.8,23.5,0,34.8-1,16.1-1.5,26-3.3,74.5-.3,7.7-.6,14.5-.7,15.1-.4,2.4.7,25,1.5,30.8.4,3.3,1,8.2,1.3,10.8.3,2.6,1,7.8,1.5,11.5.5,3.7,1.2,9.5,1.6,13,.5,3.5,1.2,9.8,1.9,14.3.7,5.1,1.1,10.9,1.1,16,0,7,0,8.5-1.1,11.9-.7,4.4-2.4,11.1-4,15.2-1.4,3.9-3.4,8.8-5.5,13-5.9,11.5-7.4,14.3-10.3,19-1.5,2.3-2.3,3.8-6.8,10.5-4.5,6.6-11.9,14.4-13.4,11.7-1.1-2,1.3-8.3,7.6-20.5,7.3-14,6.6-12.2,10.5-24.5,2.3-7.2,3.5-16.6,3.6-19.9,0-2.2.2-5.2-1.4-8.6-.5-1-1.2-4.1-1.8-7-.6-2.9-1.4-5.9-1.9-6.8-2.2-3.8-7.2-1.2-9.8,5-1.2,2.9-1.7,5.3-2.6,11.5-1.4,9.8-4.9,18.3-6.9,16.3s-1-24.8-.3-32.6c.7-8,2.6-17.4,5.4-26.2,5.1-16.2,5.3-16.7,5.2-28.2,0-9.8-.2-12.4-2.1-24.8-1-6-2.5-14.2-4.1-20.5-4.7-19.9-8.6-35.3-10.2-40.8-1.1-3.5-2.3-7.8-2.9-9.8-.5-1.9-2-7-3.1-11.3-2.8-9.7-6.9-26.3-8-32.3-2-10.2-1.7-29.5.5-47,1.6-12.9,2.1-23,1.3-28.5-.3-2.3-.9-6.7-1.3-9.8-.4-3.2-1-7-1.2-8.5-1.1-5.8-3.5-23.7-5-37-1.7-15-2.1-18-3.4-24.5-3.5-18.1-3.8-20.1-3.8-32.3,0-10.7.4-17.7,1.8-29,.3-2.5.5-6.2.5-8.1,0-4.1-.7-5.3-3.2-5.9-1.9-.5-3.6.7-5,3.3-1.3,2.7-6.3,23.5-9.4,40.4-1.4,7.3-3.2,15.6-4,18.5-.8,2.9-2.2,8.5-3,12.5-2.5,11.4-2.8,12.6-5.7,24-2.7,10.5-4.2,17.1-5.3,24.5-.4,2-1.4,7.7-2.4,12.5-1.8,8.8-2,10.4-3.3,18-.8,4.3-1.5,9.6-2.3,18.6-.7,6.3-.7,18,0,23.4,1.5,12.2,2.1,15.9,4,23,1.1,4.3,2.6,10,3.2,12.8,1.4,5.9,8.1,33.5,12.2,50.5,1.6,6.6,3.4,14.3,3.9,17,4.2,20.6,7.6,41.3,8.5,51.3.4,3.5.8,7.7,1.1,9.5s.7,6.8,1,11c.2,4.3.7,10.9,1.1,14.8.7,8.6.2,34.6-.8,46-2.5,26-4.3,41.6-6.8,59-1.5,10.2-2.2,14.1-5.2,27.7-1.5,6.7-3.7,17.3-5,23.5s-3.5,17.2-5,24.5c-5.1,24.5-8.8,46.5-10.3,62-.8,7.8-.8,52.5,0,61.8.3,3.6,1.1,9.5,1.8,13,4.2,22.6,7.7,42.8,8,46.3l.3,4,6-.2h6.1c0-.1.1-1.7.1-1.7.2-2-1.6-14.6-3.2-22.6-1.7-8.4-1.9-9.2-3.1-13.5-1-3.4-1.5-5.9-3-13.8-.7-3.5-1.9-12.8-2.2-17.5-.5-5.3.5-39.3,1.5-52,1.3-18.5,4.6-39.5,9.3-59,.5-2.2,1-4.7,1.2-5.5.2-.8.6-2.6.9-4,.3-1.4.7-3.7,1-5.2s1.3-6.5,2.5-11.2c3.5-14.9,4.4-19.3,6-28.5.8-5,2.3-13,3.3-17.9,1.6-8.1,2.4-13.5,3.8-23.4.3-2,.8-6.4,1.3-9.7.5-3.2,1-8.2,1.2-11,.3-2.7,1-10.3,1.6-16.8,1.8-16.5,2-24.9,1.4-45.6-.8-25.9-1.5-34-3.9-48.9-.4-2.6-1-5.9-1.1-7.3-.2-1.4-.7-3.9-1-5.5-.3-1.7-.7-4.5-1-6.4-.7-4.3-4.7-25.3-5.7-29.1-3.2-13.4-15-59.8-16.5-64.8-3.7-12.8-7.5-31.4-8.1-39.5-.7-8.1,1.5-27.5,5-44.7,1.2-6,3-15.7,4-21.5,2.3-13.1,2.8-15.7,5.2-24.7,1.1-4,2.4-9.6,3.1-12.5,4.3-20.4,6.5-24.5,6.8-12.9,0,3.1.4,6.7.7,8,.3,1.4.5,2.9.3,3.4-.2.6,0,2.5.2,4.1.2,1.7.6,4.1.7,5.4.4,3.9,2.2,18,3,23.8.4,3,1.1,8.5,1.5,12,.5,3.6,1.5,10,2.2,14.5,2.5,13.5,2.5,16.1-.4,35.3-2.6,18-2.7,35.1-.2,49,1.1,6.3,7.1,30.6,9.7,39.5.9,3.1,2.6,9.5,3.7,14,1.1,4.5,3.1,12.3,4.5,17.3,7.4,27.3,12.5,54.3,12.5,66.4,0,7-.9,11.2-4.2,21-3.3,9.6-4.9,16.3-6.4,26.5-.9,6.4-1,8.5-.8,19.9.6,22.3,3.4,25.3,5.7,28.5,2.4,3.3,7,3.5,10.7,1.4,8.4-4.6,10.2-19.6,10.7-18.2.4,1-.8,14.3-6.5,23.5-3.6,8.9-5.2,9.9-9.7,16.9-4.5,7.1-6.1,11.5-6.5,18.5-.4,6.5.3,9.3,3.2,12.5,3.6,4,7.5,5.3,11.2,3.7,4.3-1.8,21.2-22.2,25.8-29.2,5.2-7.8,10.2-14,18.2-36.9,5.2-15,5.7-17.2,5.5-28,0-5-.3-10.5-.6-12.3-.5-2.9-1.5-10.5-3-21.3-.2-1.9-.9-6.5-1.3-10.3-.5-3.7-1.2-8.9-1.6-11.5-2.1-13.9-2.5-20.8-2-47,.3-24.1.8-35.9,2.4-60.5,1.9-29.5,2.1-34.4,2.1-43s-1-17.3-2.5-24.5c-1.7-8-6.5-25.3-8.9-32-2.4-6.5-4.7-17-5.8-25.8-.4-3.4-.6-14.8-.7-35.5,0-18.8-.3-32.2-.7-34.8-1.4-10.6-1.7-12.4-2.1-15-.3-1.5-.7-3.9-1-5.3-.2-1.4-.8-3.9-1.2-5.5-1.2-4.5-2.7-11.2-3.4-14.5-.9-5,.2-14.7,3.8-33.5,1.7-8.7,1.4-24-.6-32.9-3-13.5-4.1-17.3-8.7-28.6-6-14.9-15.4-27.3-27.3-36.3-5.6-4.2-15.6-9.3-23.9-12-7.6-2.6-23.4-9.5-42.7-18.8-3.7-1.8-6.7-3.2-6.8-3.2s-3.5-1.6-7.6-3.5c-16.9-8.1-30.8-17.4-34.2-22.9-2.8-4.4-4.1-16-3.8-32.6l.2-9.7,2.6-5.9c3.8-8.4,5.8-14.2,7.2-21.1.3-1.6.8-3,1.1-3,7.1-1.9,9.4-3.7,12.2-9.5,2-4.3,4.8-16.2,5.7-24.2.5-4.8.5-6.1-.2-10.1-1.8-10.1-5-14-11.2-14h-1.8v-14.4c0-15.3-.1-16.2-2.8-25.6-2.9-10.2-8.1-19-16.2-27.4-9.1-9.5-19.1-15.3-32.7-18.6-4.9-1.2-6.4-1.4-12.4-1.4v14.1c6.3.2,11.2,1.1,17.1,3.2,17,6.1,30.3,22.2,34.6,41.8.8,3.7.9,6.7,1,21,0,16,0,16.9,1,18.5,1.4,2.4,2.8,3,6.8,3s5.2.7,5.6,5.3Z"/>
        <path class="cls-1" d="M161.3,1082.5c-8.2-2.1-14.2-8.1-19-19.3-2.2-5.2-3.6-10.3-4.2-16.7-1-8.9.4-8,7.7,4.7,9.9,17.2,10.4,18,15.6,23.4,5.4,5.7,6.8,7.8,5.4,8.2-1.1.4-2.6.3-5.4-.4h0Z"/>
      </g>
      <path class="cls-1" d="M299.6,1082.5c-2.9.7-4.3.8-5.4.4-1.3-.5,0-2.6,5.4-8.2,5.2-5.4,5.7-6.2,15.6-23.4,7.3-12.7,8.7-13.6,7.7-4.7-.7,6.3-2,11.4-4.3,16.7-4.8,11.2-10.8,17.2-19,19.3h0Z"/>
    </g>
  </g>
</svg>