<?xml version="1.0" standalone="no"?>
<!DOCTYPE svg PUBLIC "-//W3C//DTD SVG 20010904//EN"
 "http://www.w3.org/TR/2001/REC-SVG-20010904/DTD/svg10.dtd">
<svg version="1.0" xmlns="http://www.w3.org/2000/svg"
 width="640.000000pt" height="1280.000000pt" viewBox="0 0 640.000000 1280.000000"
 preserveAspectRatio="xMidYMid meet">
<metadata>
Created by potrace 1.15, written by Peter Selinger 2001-2017
</metadata>
<g transform="translate(0.000000,1280.000000) scale(0.100000,-0.100000)"
fill="#000000" stroke="none">
<path d="M3032 12785 c-215 -39 -404 -132 -556 -275 -441 -413 -453 -1111 -27
-1537 142 -141 302 -232 511 -290 102 -28 396 -25 507 5 360 98 637 353 753
696 108 316 60 671 -128 946 -103 150 -276 298 -434 369 -197 90 -430 122
-626 86z"/>
<path d="M1960 10444 c-492 -52 -892 -329 -1113 -770 -36 -72 -92 -236 -113
-334 -18 -81 -19 -166 -19 -1870 0 -1697 1 -1788 18 -1837 62 -178 215 -293
412 -309 249 -21 465 145 504 386 7 43 11 566 11 1563 l0 1497 95 0 95 0 3
-4132 c2 -3959 3 -4136 20 -4192 63 -205 196 -344 394 -413 68 -23 94 -27 203
-27 93 0 140 4 184 18 207 63 357 204 424 400 l27 81 3 2423 2 2422 95 0 95 0
0 -2407 c0 -2647 -4 -2464 61 -2600 67 -140 204 -257 362 -310 71 -23 98 -27
207 -27 93 0 140 4 184 18 204 61 348 198 413 389 l28 82 3 4138 2 4137 95 0
95 0 0 -1516 c0 -1681 -3 -1594 66 -1711 47 -79 115 -140 204 -181 125 -58
288 -57 416 4 74 35 154 111 192 182 66 124 62 2 62 1894 0 1868 2 1795 -55
1993 -129 445 -465 800 -888 940 -220 72 -152 69 -1522 71 -676 1 -1246 0
-1265 -2z"/>
</g>
</svg>
