<?xml version="1.0" encoding="UTF-8"?>
<svg xmlns="http://www.w3.org/2000/svg" version="1.1" viewBox="0 0 461.1 1136.6">
  <defs>
    <style>
      .cls-1 {
        fill: #c17080;
      }
    </style>
  </defs>
  <!-- Generator: Adobe Illustrator 28.6.0, SVG Export Plug-In . SVG Version: 1.2.0 Build 709)  -->
  <g>
    <g id="Calque_1">
      <path class="cls-1" d="M275.1,68.3c0,4-1.1,7.8-3.2,11.6-2.3,4.1-5.4,6.9-9.9,8.9-3.6,1.6-7,2.3-11.1,2.3-3.6,0-6.6-.6-9.7-1.8l-.9-.3-.4.2c-1.1.5-3.9,1.2-5.8,1.3-1.4.1-6.8.1-8.1,0-1.9-.2-3.4-.5-5-1.1l-.9-.3-.4.2c-.7.3-2.8,1-4,1.3-2.4.6-5.7.8-8,.6-5.9-.5-11.3-2.7-15-6.2-3.8-3.5-6.4-9.1-7-14.5-.1-1.5,0-4.3.2-5.6.5-2.9,1.3-4.8,3.1-7.8l.2-.4v-.6c-.2-.4-.3-1-.3-2.6s0-2.1.2-3.1c.5-2.2,1.4-4.4,2.6-6,1.8-2.6,4.4-4.6,7.4-6,1-.5,1.1-.5,1.6-1.1,2.7-3.3,6.3-5.6,10.5-7,6.7-2.1,13.5-1,16.9,2.9.7.8,1.4,1.9,1.8,2.7.2.3.3.6.4.6s.2-.3.3-.6c.9-1.8,2.5-3.6,4.2-4.6,4.5-2.8,12-2.6,18,.5,2.6,1.4,5.1,3.3,6.8,5.3l.7.8,1.1.5c1.9.9,3.3,1.8,4.9,3.2,3.1,2.8,4.8,6,5.3,10.2.1,1,0,3.6-.1,4.3v.5c-.1,0,.2.5.2.5,1.4,2.2,2.4,4.4,2.9,6.8.4,1.6.5,2.7.5,4.5Z"/>
    </g>
  </g>
</svg>