<?xml version="1.0" encoding="UTF-8"?>
<svg xmlns="http://www.w3.org/2000/svg" version="1.1" viewBox="0 0 461.1 1136.6">
  <defs>
    <style>
      .cls-1 {
        fill: #c1654a;
      }
    </style>
  </defs>
  <!-- Generator: Adobe Illustrator 28.6.0, SVG Export Plug-In . SVG Version: 1.2.0 Build 709)  -->
  <g>
    <g id="Calque_1">
      <path class="cls-1" d="M320.1,357.7c-.5.4-1.2.9-1.4.9s-.3,0-.4.1c-.5.3-1.6.4-2.6.3-.5,0-1.1-.2-1.2-.3s-.4-.1-.4-.1-.4-.1-.8-.3c-1.1-.5-1.1-.5-2,.4-.5.4-1.1,1-1.3,1.1-.2.2-.4.4-.4.5s0,.1-.2,0c0,0-.1,0-.1,0,.1.4.3.6.5,1,2.8,3.9,3.9,7.8,4.1,13.6,0,3.4-.2,7.3-.8,11-.5,2.9-.9,4.9-2,8.9-.7,2.5-2.4,7.3-3.4,9.6l-2.7,5.5c-.4.7-1,1.7-1.3,2.3-.4.6-.7,1.1-.8,1.3,0,.1-.4.7-.9,1.3-.4.6-.8,1.2-.8,1.3-.4.6-1.9,2.6-2.6,3.5-4.8,6-9.3,9.7-13.1,10.8-1.1.3-3,.4-3.9.3-2.1-.4-4.3-1.8-6.3-4.1-2.4-2.8-4.5-6.1-8.6-13.6-1.2-2.3-3.1-5.6-5.3-9.5-.2-.4-.5-.9-.7-1.2-.2-.3-.6-1-.9-1.6-1.6-2.9-2.5-4.6-3.5-7.1-1.7-4.3-2.8-8.9-3.4-14.1-.2-1.8-.2-8,0-9.7.2-1.3.5-3,.7-3.8,0-.4,0-.4-.4-1.1-1-1.6-1.1-1.8-1.6-2.8l-.5-1-.7.3c-2.3,1-4.5,1.3-6.6.9-.8-.2-2.3-.9-3.1-1.5l-.6-.5v-.7c0-.5,0-.8.3-1.2.3-.7,1.1-1.5,1.7-1.7.4-.2.5-.2.8,0,1.7,1.3,3.7.9,5.7-1l.5-.5-.2-.9c-.1-.7-.1-.9,0-1,0,0,.1-.4.1-1.1q0-1.3-1.1-1.7c-2.2-1-3.8-2.8-4.3-5-.2-.7,0-.9.4-1.4.6-.6,2-1,2.8-.8.3,0,.4.2.6.8.3.7,1.1,1.7,1.4,1.7s.2-.3.4-1.1c.1-.6.4-1.6.6-2.3q.4-1.4,1.7-1.7c1.5-.3,2.8-.2,3.9.4.9.4,2.2,1.7,2.6,2.5q.2.3-.2,1.6c-.3,1-.4,2.9-.2,3.9.2,1.1.7,2.4,1.4,3.5.9,1.4.8,1.3,1.6.6,2.8-2.7,6.9-4.9,11.4-6.3,0-.1,0-.5,0-2.4,0-2.2,0-2.4-.4-3.4-.5-1.6-1.2-2.8-2.1-3.8-.3-.3-.5-.5-.5-.6s-.5-.4-1.2-.8c-1.3-.9-1.3-.8-1.3-2.3s.3-1.8.7-2.5c.5-.9,2.1-2.1,2.6-2.1s1.7.8,2,1.1c.1.1.3.2.4.3.1,0,.5.4.9.6.3.3.7.5.7.5s.7.6,1.4,1.4c1.3,1.3,2.5,2.9,2.7,3.4,0,.1.1.3.2.3,0,0,.2.3.4.7.2.3.4.6.4.7,0,0,0,.1,0,.2s0,.4.2.6c.3.7,1.4,3.9,1.4,4.3s0,0,0,.1c2.9-2,5-2.9,7.5-3.4l1.1-.2.8-.7c3.1-2.7,6.5-4.2,10.4-4.9,1.3-.2,5.1-.2,6.6,0,1.5.3,4.5,1,5.6,1.4l.8.3v.6c.3.8.3,2.5.1,3.3-.3,1.2-.8,2.1-1.5,2.6-.2.2-.3.1-1.3-.2-2.1-.6-4-.8-5.8-.4-1.5.2-3,.9-4.1,1.8l-.6.5.8.9c2.1,2.2,4.3,5.4,5.7,8.5v.2c.2.1.2.2.2.1,0-.2.9-1.1,1.1-1.1s.3-.1.4-.3c.2-.2.6-.5.9-.7.3-.2.8-.6,1-.9.2-.2.5-.4.5-.4,0,0,2.4-2.4,3.1-3.2.3-.4.8-.9,1.1-1.2q.5-.5,1-.4c.7,0,1.7.6,2.3,1,.5.4.9,1.3.9,1.9s-.1.6-.7,1.5c-.4.6-.7,1.1-.7,1.1s-.1.2-.3.4c-.5.6-.8,1-1,1.3,0,.2-.3.4-.4.5s-.4.5-.6.8c-.2.3-.4.6-.5.6,0,0,0,.2,0,.3s.1.3.6.5c.5.2.7.3,1.4.3.4,0,.8,0,.8-.1.1-.2.7-.5.9-.5s1.2.8,1.3,1.3c.2.6.1,1.2,0,1.4Z"/>
    </g>
  </g>
</svg>