<?xml version="1.0" encoding="UTF-8"?>
<svg xmlns="http://www.w3.org/2000/svg" version="1.1" viewBox="0 0 461.1 1136.6">
  <defs>
    <style>
      .cls-1 {
        fill: #e296a8;
      }

      .cls-2 {
        fill: #c17080;
      }
    </style>
  </defs>
  <!-- Generator: Adobe Illustrator 28.6.0, SVG Export Plug-In . SVG Version: 1.2.0 Build 709)  -->
  <g>
    <g id="Calque_1">
      <path class="cls-2" d="M165.2,709s8.4,12.8,27.6,14.6,38.3-12.5,38.3-12.5l74.3-.8s10.7-28.3,9.4-36-11-59-11-59c0,0-15.1-8.2-20.7-8.4s-64.9,2.3-69.4,2-43.7,2-43.7,2l-9.7,32.2,4.9,65.9Z"/>
      <path class="cls-1" d="M135.8,705.4s-4.3,17.8,14.6,18.6,22.8-19.1,19.1-25.9c0,0,7.1-11.3-1.9-18.7,0,0,9-11.7-1.1-24.3,0,0,6.8-11.5-.2-20.3,0,0,6.4-8.4,4.1-16.1,0,0,11,8.3,24.1,2.3,0,0,12.1,8.3,24.6,2.6,0,0,10.2,11,26.6.6,0,0,14.7,5.2,24.8-3.1,0,0,9.9,3.8,19.7-.9,0,0-1.7,10.6,4.3,15.5,0,0-4.3,13.4.5,22.4,0,0-6.6,9.7-1.1,21.9,0,0-5.8,8.3-3.4,17.8,0,0-13-3.9-21.4,1.7,0,0-7-5.4-21.3-4.4,0,0-7.8-9.7-21.4-2s-7,26.4-7,26.4c0,0-11.7,6.5-3.4,21.1,0,0,2.2,25.7,15.5,25.9s15-21.1,15-21.1c0,0,3.9-3.2,3.2-12.4,0,0,2.4-1.7,2.6-2.9,0,0,18.9,18.2,41.4,1.4,0,0,31.1,11.7,30.8-21.4,0,0,8-11.2,1.5-24.2,0,0,11.2-10.2,2.5-19.9,0,0,14.7-13.4-.8-25.5,0,0,15.3-19.1-7.3-36.1,0,0,.3-11.6-9.9-14.8s-16.3,1.4-17.5,3.1c0,0-5.3-4.8-14.1-4.2s-12.3,4.4-13.3,6.4c0,0-12.6-7.7-24.2,2.7,0,0-10.4-7.3-23-1.5,0,0-10-6.6-22.1-2.4,0,0-8.5-11.4-22-5.3,0,0-8-7.2-17.4-4.3s-10.2,11.1-10.2,11.1c0,0-20.4,5.1-13.4,21.1,0,0-11.9,10.6-1.5,22.1,0,0-12.8,12.3.8,24.3,0,0-7.5,12.9,2.6,22.1,0,0-6.5,8.5.6,20.8Z"/>
    </g>
  </g>
</svg>