<?xml version="1.0" encoding="UTF-8"?>
<svg xmlns="http://www.w3.org/2000/svg" version="1.1" viewBox="0 0 461.1 1136.6">
  <defs>
    <style>
      .cls-1 {
        fill: #c38629;
      }
    </style>
  </defs>
  <!-- Generator: Adobe Illustrator 28.6.0, SVG Export Plug-In . SVG Version: 1.2.0 Build 709)  -->
  <g>
    <g id="Calque_1">
      <path class="cls-1" d="M301.1,457.7c-17.9-3.9-36.4-16.8-45.4-31.6-6.2-10.3-8.5-30.3-5.8-48.8,1.2-7.5,1.5-14,1-22.6-.7-14.4.6-25,4.9-38.9,3.8-12.5,5.7-16.4,10.3-20.3,8-7.1,18.7-2.2,33.6,15.5,21.4,25.4,35.1,58.7,39,94.9,1.9,17.3-.8,33.8-7,43.5-5.2,8.3-16.6,11.4-30.6,8.3h0Z"/>
      <path class="cls-1" d="M133.3,452c-5-1.6-10.3-7.4-12.4-13.7-2.4-7.2-3.3-27-1.6-38.2,4.5-31.2,22.7-70.8,41.9-91.1,10.6-11.2,20-16.7,28.4-16.7s11.7,6.2,14,14.6c3.6,12.8,4,20.4,4.1,64.4v36.2c0,4.9-1,9.7-3.2,14l-.5,1.1c-4.6,9.3-8.7,13.7-16.8,17.8-19.8,9.9-43.2,15-53.9,11.6h0Z"/>
    </g>
  </g>
</svg>