<?xml version="1.0" encoding="UTF-8"?>
<svg xmlns="http://www.w3.org/2000/svg" version="1.1" viewBox="0 0 461.1 1136.6">
  <defs>
    <style>
      .cls-1 {
        fill: #54786c;
      }
    </style>
  </defs>
  <!-- Generator: Adobe Illustrator 28.6.0, SVG Export Plug-In . SVG Version: 1.2.0 Build 709)  -->
  <g>
    <g id="Calque_1">
      <path class="cls-1" d="M233.1,525.8c10.9,3.6,16.1-2.7,21.9-10.7,3.9-5.3,6-10.9,7.1-18.4,1.2-9,.6-5.7-3.6-13.6-4.3-7.9-24.1-18.3-31.4-36.1s-8.8-62.2-5.9-86.3.3-96-.3-111.6,1.2-35.8,2.1-38.8c.9-2.9,7.2-3.5,10.7-3.1,8,.9,5.8,6.1,6.1,22.5s3.8,84.7.4,109.2-3.3,37-.3,74.2c3.3,40.3,21.5,43,29.7,49.5,4.5,3.6,4.7,2.4,9.2.5,13.9-6,28.8-.9,38.2,12.9,13,19.2,10.4,50.4-6.1,72.3-11.7,15.3-25.8,23.6-44.3,26-7,.9-7.8.9-19.1-1.3-11.2-2.2-12.1-2.5-17.2-5.5-10.1-5.9-14.6-11.2-20.8-25.7s9.6-20.7,23.8-16.1Z"/>
    </g>
  </g>
</svg>